<?xml version="1.0" encoding="UTF-8"?>
<svg id="Layer_1" xmlns="http://www.w3.org/2000/svg" version="1.1" xmlns:xlink="http://www.w3.org/1999/xlink" viewBox="0 0 253.9 108.9">
  <!-- Generator: Adobe Illustrator 29.3.1, SVG Export Plug-In . SVG Version: 2.1.0 Build 151)  -->
  <defs>
    <style>
      .st0 {
        fill: #2159e2;
      }

      .st1 {
        fill: none;
      }

      .st2 {
        fill: #FF8B62;
      }

      .st3 {
        clip-path: url(#clippath);
      }
    </style>
    <clipPath id="clippath">
      <rect class="st1" x="18.4" y="4.6" width="217.8" height="40"/>
    </clipPath>
  </defs>
  <g id="cf3f5589a2">
    <g class="st3">
      <path class="st0" d="M178.9,113.7v-55.6l2.8,1.8,9.5-15L129.1,4.8h-.2c0-.1-3.2-.1-3.2-.1l-22.5,14.5v-2h-24.1v17.6l-15.8,10.2,9.5,15,2.8-1.8v55.6H18.4v5.6h62.7V47.8c0,0-6.6,4.3-6.6,4.3l-3.5-5.5,13.6-8.8v-15h13v6.7l29.3-18.9h.8s55.9,36.1,55.9,36.1l-3.5,5.5-6.7-4.3v71.6c0,0,62.8,0,62.8,0v-5.6h-57.2"/>
    </g>
    <path class="st2" d="M21.2,104.3c-3.3,0-6.5-.3-9.6-1-3.2-.7-5.7-1.6-7.6-2.7l4.3-10.4c1.8,1.1,3.8,1.9,6.3,2.5,2.4.6,4.8.9,7,.9s3.1-.2,3.8-.5c.7-.3,1.1-.8,1.1-1.4s-.5-1-1.4-1.3c-.9-.2-2.4-.5-4.4-.7-3.1-.4-5.7-.8-7.9-1.4-2.2-.6-4.1-1.7-5.8-3.4-1.6-1.7-2.5-4-2.5-7.1s.7-4.7,2.2-6.6c1.5-1.9,3.7-3.5,6.6-4.6,2.9-1.2,6.5-1.8,10.6-1.8s5.7.3,8.4.8c2.8.5,5.1,1.3,7.1,2.3l-4.3,10.4c-3.3-1.8-7-2.8-11-2.8s-5.1.6-5.1,1.8.5,1,1.4,1.3c.9.3,2.4.5,4.4.7,3.1.4,5.7.9,7.9,1.5,2.2.6,4,1.7,5.7,3.4,1.7,1.7,2.5,4.1,2.5,7.1s-.7,4.5-2.2,6.5c-1.5,1.9-3.7,3.5-6.7,4.6-3,1.2-6.5,1.7-10.8,1.7Z"/>
    <path class="st2" d="M62.6,64.9c6.7,0,11.8,1.5,15.3,4.5,3.5,3,5.3,7.6,5.3,13.8v20.4h-14.6v-5c-1.8,3.8-5.4,5.7-10.8,5.7s-5.6-.5-7.7-1.6c-2.1-1-3.7-2.4-4.8-4.2-1.1-1.8-1.6-3.8-1.6-6,0-3.8,1.4-6.6,4.3-8.5,2.9-1.9,7.2-2.9,13.1-2.9h6.3c-.5-3-2.9-4.5-7.1-4.5s-3.5.3-5.2.8c-1.8.5-3.3,1.3-4.5,2.2l-5-10.4c2.2-1.3,4.8-2.4,7.9-3.2,3.1-.8,6.2-1.1,9.2-1.1ZM62.5,94.8c1.1,0,2.1-.3,3-.9.9-.6,1.5-1.5,2-2.7v-2.6h-3.9c-3.2,0-4.8,1.1-4.8,3.2s.3,1.6,1,2.2,1.6.9,2.8.9Z"/>
    <path class="st2" d="M108.2,91.9l-2.5,2.7v9h-15.7v-51.6h15.7v24.6l10.9-11.1h18.6l-15.7,16.5,17,21.5h-19l-9.3-11.7Z"/>
    <path class="st2" d="M156.5,64.9c6.7,0,11.8,1.5,15.3,4.5,3.5,3,5.3,7.6,5.3,13.8v20.4h-14.6v-5c-1.8,3.8-5.4,5.7-10.8,5.7s-5.6-.5-7.7-1.6c-2.1-1-3.7-2.4-4.8-4.2-1.1-1.8-1.6-3.8-1.6-6,0-3.8,1.4-6.6,4.3-8.5,2.9-1.9,7.2-2.9,13.1-2.9h6.3c-.5-3-2.9-4.5-7.1-4.5s-3.5.3-5.2.8c-1.8.5-3.3,1.3-4.5,2.2l-5-10.4c2.2-1.3,4.8-2.4,7.9-3.2,3.1-.8,6.2-1.1,9.2-1.1ZM156.4,94.8c1.1,0,2.1-.3,3-.9.9-.6,1.5-1.5,2-2.7v-2.6h-3.9c-3.2,0-4.8,1.1-4.8,3.2s.3,1.6,1,2.2,1.6.9,2.8.9Z"/>
    <path class="st2" d="M210.3,64.9c4.7,0,8.4,1.4,11.3,4.3,2.9,2.8,4.3,7.1,4.3,12.8v21.7h-15.7v-19c0-4.3-1.6-6.5-4.7-6.5s-3.2.6-4.3,1.8c-1.1,1.2-1.6,3.2-1.6,5.8v17.9h-15.7v-38h14.9v3.8c1.5-1.5,3.2-2.6,5.1-3.3,1.9-.8,4-1.1,6.3-1.1Z"/>
    <path class="st2" d="M232.7,65.5h15.7v38h-15.7v-38ZM240.5,62.5c-2.8,0-5.1-.8-6.8-2.3-1.7-1.5-2.6-3.4-2.6-5.7s.9-4.2,2.6-5.7c1.7-1.5,4-2.3,6.8-2.3s5.2.7,6.9,2.2c1.7,1.4,2.6,3.3,2.6,5.5s-.9,4.4-2.6,6c-1.7,1.5-4,2.3-6.9,2.3Z"/>
  </g>
</svg>